
<svg aria-hidden="true" style="position: absolute; width: 0; height: 0; overflow: hidden;" version="1.1" xmlns="http://www.w3.org/2000/svg" xmlns:xlink="http://www.w3.org/1999/xlink">
<defs>

<symbol id="icon-burger" viewBox="0 0 43 32">
<path d="M40 0h-37.333c-1.473 0-2.667 1.194-2.667 2.667s1.194 2.667 2.667 2.667v0h37.333c1.473 0 2.667-1.194 2.667-2.667s-1.194-2.667-2.667-2.667v0zM40 13.333h-37.333c-1.473 0-2.667 1.194-2.667 2.667s1.194 2.667 2.667 2.667v0h37.333c1.473 0 2.667-1.194 2.667-2.667s-1.194-2.667-2.667-2.667v0zM40 26.667h-37.333c-1.473 0-2.667 1.194-2.667 2.667s1.194 2.667 2.667 2.667v0h37.333c1.473 0 2.667-1.194 2.667-2.667s-1.194-2.667-2.667-2.667v0z"></path>
</symbol>

<symbol id="icon-arrow" viewBox="0 0 56 32">
<path opacity="0.8" d="M28 26l24.176-23.352c0.412-0.391 0.97-0.631 1.584-0.631s1.172 0.24 1.585 0.632l-0.001-0.001c0.405 0.383 0.657 0.924 0.657 1.524s-0.252 1.141-0.656 1.523l-0.001 0.001-27.344 26.304-27.344-26.304c-0.405-0.383-0.657-0.924-0.657-1.524s0.252-1.141 0.656-1.523l0.001-0.001c0.412-0.391 0.97-0.631 1.584-0.631s1.172 0.24 1.585 0.632l-0.001-0.001 24.176 23.352z"></path>
</symbol>

</defs>
</svg>